<?xml version="1.0" encoding="utf-8"?>
<!-- Generator: Adobe Illustrator 25.2.1, SVG Export Plug-In . SVG Version: 6.00 Build 0)  -->
<svg version="1.1" id="Layer_1" xmlns="http://www.w3.org/2000/svg" xmlns:xlink="http://www.w3.org/1999/xlink" x="0px" y="0px"
	 viewBox="0 0 32 32" style="enable-background:new 0 0 32 32;" xml:space="preserve">
<style type="text/css">
	.st0{fill:#DC143C;}
</style>
<path class="st0" d="M2,7v18h28V7H2z M4,9h24v14H4V9z M11.7,11l-0.2,0.7L9,19.4l0,0.2V21h2v-1h3v1h2v-1.4l0-0.2l-2.5-7.7L13.3,11
	H11.7z M21,11v4h-1.5c-1.4,0-2.5,1.1-2.5,2.5v1c0,1.4,1.1,2.5,2.5,2.5H23V11H21z M12.5,15.2l0.9,2.8h-1.8L12.5,15.2z M19.5,17H21v2
	h-1.5c-0.3,0-0.5-0.2-0.5-0.5v-1C19,17.2,19.2,17,19.5,17z"/>
</svg>
