<?xml version="1.0" encoding="utf-8"?>
<!-- Generator: Adobe Illustrator 25.2.1, SVG Export Plug-In . SVG Version: 6.00 Build 0)  -->
<svg version="1.1" id="Layer_1" xmlns="http://www.w3.org/2000/svg" xmlns:xlink="http://www.w3.org/1999/xlink" x="0px" y="0px"
	 viewBox="0 0 32 32" style="enable-background:new 0 0 32 32;" xml:space="preserve">
<style type="text/css">
	.st0{fill:#DC143C;}
</style>
<path class="st0" d="M25,4c-0.8,0-1.5,0.3-2.1,0.9L13,14.8L12.8,15l-0.1,0.3L12,18.8l-0.3,1.5l1.5-0.3l3.5-0.7l0.3-0.1l0.2-0.2
	l9.9-9.9c1.2-1.2,1.2-3,0-4.2C26.5,4.3,25.8,4,25,4z M25,6c0.2,0,0.5,0.1,0.7,0.3c0.4,0.4,0.4,0.9,0,1.4L16,17.4l-1.7,0.3l0.3-1.7
	l9.7-9.7C24.5,6.1,24.8,6,25,6z M4,8v20h20V14.8l-2,2V26H6V10h9.2l2-2H4z"/>
</svg>
